<mxfile host="app.diagrams.net" agent="Mozilla/5.0 (Windows NT 10.0; Win64; x64) AppleWebKit/537.36 (KHTML, like Gecko) Chrome/135.0.0.0 Safari/537.36 Edg/135.0.0.0" version="26.2.9">
  <diagram name="Page-1" id="kR0DXdecF1iSGSfxx1Rh">
    <mxGraphModel dx="1594" dy="713" grid="1" gridSize="10" guides="1" tooltips="1" connect="1" arrows="1" fold="1" page="1" pageScale="1" pageWidth="827" pageHeight="1169" math="0" shadow="0">
      <root>
        <mxCell id="0" />
        <mxCell id="1" parent="0" />
        <mxCell id="hogHbxseBKtBZCMJAR0p-1" value="&amp;nbsp; &amp;nbsp; &amp;lt;&amp;lt;module&amp;gt;&amp;gt;&amp;nbsp; &amp;nbsp;&amp;nbsp;&lt;div&gt;&lt;span style=&quot;background-color: transparent; color: light-dark(rgb(0, 0, 0), rgb(255, 255, 255));&quot;&gt;Payroll&lt;/span&gt;&lt;/div&gt;" style="shape=rect;html=1;verticalAlign=top;fontStyle=1;whiteSpace=wrap;align=center;" vertex="1" parent="1">
          <mxGeometry x="130" y="90" width="558" height="560" as="geometry" />
        </mxCell>
        <mxCell id="hogHbxseBKtBZCMJAR0p-2" value="Manager" style="shape=umlActor;html=1;verticalLabelPosition=bottom;verticalAlign=top;align=center;" vertex="1" parent="1">
          <mxGeometry x="40" y="231" width="70" height="110" as="geometry" />
        </mxCell>
        <mxCell id="hogHbxseBKtBZCMJAR0p-3" value="Employee" style="shape=umlActor;html=1;verticalLabelPosition=bottom;verticalAlign=top;align=center;" vertex="1" parent="1">
          <mxGeometry x="720" y="113" width="60" height="118" as="geometry" />
        </mxCell>
        <mxCell id="hogHbxseBKtBZCMJAR0p-4" value="Human Resources (HR)" style="shape=umlActor;html=1;verticalLabelPosition=bottom;verticalAlign=top;align=center;" vertex="1" parent="1">
          <mxGeometry x="720" y="550" width="70" height="112.5" as="geometry" />
        </mxCell>
        <mxCell id="hogHbxseBKtBZCMJAR0p-5" value="Generate Entries" style="ellipse;whiteSpace=wrap;html=1;" vertex="1" parent="1">
          <mxGeometry x="530" y="160" width="100" height="30" as="geometry" />
        </mxCell>
        <mxCell id="hogHbxseBKtBZCMJAR0p-6" value="Review&amp;nbsp; / Approve&amp;nbsp;&lt;div&gt;Entries&lt;/div&gt;" style="ellipse;whiteSpace=wrap;html=1;" vertex="1" parent="1">
          <mxGeometry x="250" y="160" width="130" height="40" as="geometry" />
        </mxCell>
        <mxCell id="hogHbxseBKtBZCMJAR0p-7" value="&amp;lt;&amp;lt;extend&amp;gt;&amp;gt;" style="edgeStyle=none;html=1;startArrow=open;endArrow=none;startSize=12;verticalAlign=bottom;dashed=1;labelBackgroundColor=none;rounded=0;entryX=1;entryY=0.5;entryDx=0;entryDy=0;exitX=0;exitY=0.5;exitDx=0;exitDy=0;" edge="1" parent="1" source="hogHbxseBKtBZCMJAR0p-5" target="hogHbxseBKtBZCMJAR0p-6">
          <mxGeometry width="160" relative="1" as="geometry">
            <mxPoint x="170" y="360" as="sourcePoint" />
            <mxPoint x="330" y="360" as="targetPoint" />
          </mxGeometry>
        </mxCell>
        <mxCell id="hogHbxseBKtBZCMJAR0p-8" value="Manage / Process Payroll" style="ellipse;whiteSpace=wrap;html=1;" vertex="1" parent="1">
          <mxGeometry x="336" y="565" width="160" height="40" as="geometry" />
        </mxCell>
        <mxCell id="hogHbxseBKtBZCMJAR0p-9" value="Team Leader&lt;br&gt;(Supervisor)" style="shape=umlActor;html=1;verticalLabelPosition=bottom;verticalAlign=top;align=center;" vertex="1" parent="1">
          <mxGeometry x="730" y="352.5" width="67.5" height="110" as="geometry" />
        </mxCell>
        <mxCell id="hogHbxseBKtBZCMJAR0p-10" value="Generate Campaign Reports" style="ellipse;whiteSpace=wrap;html=1;" vertex="1" parent="1">
          <mxGeometry x="200" y="330" width="120" height="50" as="geometry" />
        </mxCell>
        <mxCell id="hogHbxseBKtBZCMJAR0p-11" value="&amp;lt;&amp;lt;extend&amp;gt;&amp;gt;" style="edgeStyle=none;html=1;startArrow=open;endArrow=none;startSize=12;verticalAlign=bottom;dashed=1;labelBackgroundColor=none;rounded=0;entryX=0;entryY=0.5;entryDx=0;entryDy=0;exitX=1;exitY=1;exitDx=0;exitDy=0;" edge="1" parent="1" source="hogHbxseBKtBZCMJAR0p-10" target="hogHbxseBKtBZCMJAR0p-32">
          <mxGeometry x="-0.388" y="-1" width="160" relative="1" as="geometry">
            <mxPoint x="380" y="298" as="sourcePoint" />
            <mxPoint x="540" y="298" as="targetPoint" />
            <mxPoint as="offset" />
            <Array as="points" />
          </mxGeometry>
        </mxCell>
        <mxCell id="hogHbxseBKtBZCMJAR0p-12" value="View Payslip" style="ellipse;whiteSpace=wrap;html=1;" vertex="1" parent="1">
          <mxGeometry x="430" y="470" width="120" height="45" as="geometry" />
        </mxCell>
        <mxCell id="hogHbxseBKtBZCMJAR0p-15" value="View financial report" style="ellipse;whiteSpace=wrap;html=1;" vertex="1" parent="1">
          <mxGeometry x="210" y="462.5" width="126" height="40" as="geometry" />
        </mxCell>
        <mxCell id="hogHbxseBKtBZCMJAR0p-16" value="&amp;lt;&amp;lt;include&amp;gt;&amp;gt;" style="edgeStyle=none;html=1;endArrow=open;verticalAlign=bottom;dashed=1;labelBackgroundColor=none;rounded=0;exitX=0.5;exitY=0;exitDx=0;exitDy=0;entryX=0.398;entryY=1.008;entryDx=0;entryDy=0;entryPerimeter=0;" edge="1" parent="1" source="hogHbxseBKtBZCMJAR0p-15" target="hogHbxseBKtBZCMJAR0p-10">
          <mxGeometry width="160" relative="1" as="geometry">
            <mxPoint x="130" y="440" as="sourcePoint" />
            <mxPoint x="290" y="440" as="targetPoint" />
          </mxGeometry>
        </mxCell>
        <mxCell id="hogHbxseBKtBZCMJAR0p-18" value="" style="edgeStyle=none;html=1;endArrow=block;endFill=0;endSize=12;verticalAlign=bottom;rounded=0;entryX=0.728;entryY=0.93;entryDx=0;entryDy=0;entryPerimeter=0;" edge="1" parent="1" target="hogHbxseBKtBZCMJAR0p-6">
          <mxGeometry width="160" relative="1" as="geometry">
            <mxPoint x="720" y="370" as="sourcePoint" />
            <mxPoint x="350" y="200" as="targetPoint" />
          </mxGeometry>
        </mxCell>
        <mxCell id="hogHbxseBKtBZCMJAR0p-19" value="" style="edgeStyle=none;html=1;endArrow=block;endFill=0;endSize=12;verticalAlign=bottom;rounded=0;entryX=0;entryY=0.5;entryDx=0;entryDy=0;" edge="1" parent="1" target="hogHbxseBKtBZCMJAR0p-6">
          <mxGeometry width="160" relative="1" as="geometry">
            <mxPoint x="120" y="230" as="sourcePoint" />
            <mxPoint x="210" y="188" as="targetPoint" />
          </mxGeometry>
        </mxCell>
        <mxCell id="hogHbxseBKtBZCMJAR0p-20" value="" style="edgeStyle=none;html=1;endArrow=block;endFill=0;endSize=12;verticalAlign=bottom;rounded=0;entryX=1;entryY=0.5;entryDx=0;entryDy=0;" edge="1" parent="1" target="hogHbxseBKtBZCMJAR0p-5">
          <mxGeometry width="160" relative="1" as="geometry">
            <mxPoint x="720" y="176" as="sourcePoint" />
            <mxPoint x="570" y="176.02" as="targetPoint" />
          </mxGeometry>
        </mxCell>
        <mxCell id="hogHbxseBKtBZCMJAR0p-24" value="" style="edgeStyle=none;html=1;endArrow=block;endFill=0;endSize=12;verticalAlign=bottom;rounded=0;entryX=1;entryY=0.5;entryDx=0;entryDy=0;" edge="1" parent="1" source="hogHbxseBKtBZCMJAR0p-4" target="hogHbxseBKtBZCMJAR0p-8">
          <mxGeometry width="160" relative="1" as="geometry">
            <mxPoint x="608.02" y="768.4749999999999" as="sourcePoint" />
            <mxPoint x="540" y="610" as="targetPoint" />
          </mxGeometry>
        </mxCell>
        <mxCell id="hogHbxseBKtBZCMJAR0p-26" value="" style="edgeStyle=none;html=1;endArrow=block;endFill=0;endSize=12;verticalAlign=bottom;rounded=0;entryX=1;entryY=0.5;entryDx=0;entryDy=0;" edge="1" parent="1" target="hogHbxseBKtBZCMJAR0p-12">
          <mxGeometry width="160" relative="1" as="geometry">
            <mxPoint x="750" y="260" as="sourcePoint" />
            <mxPoint x="290" y="450" as="targetPoint" />
            <Array as="points" />
          </mxGeometry>
        </mxCell>
        <mxCell id="hogHbxseBKtBZCMJAR0p-27" value="Monitor campaigns(like teams, tasks, etc.)" style="ellipse;whiteSpace=wrap;html=1;" vertex="1" parent="1">
          <mxGeometry x="180" y="230" width="150" height="44" as="geometry" />
        </mxCell>
        <mxCell id="hogHbxseBKtBZCMJAR0p-28" value="" style="edgeStyle=none;html=1;endArrow=block;endFill=0;endSize=12;verticalAlign=bottom;rounded=0;entryX=0;entryY=0.5;entryDx=0;entryDy=0;" edge="1" parent="1" source="hogHbxseBKtBZCMJAR0p-2" target="hogHbxseBKtBZCMJAR0p-10">
          <mxGeometry width="160" relative="1" as="geometry">
            <mxPoint x="140" y="293.9954545454545" as="sourcePoint" />
            <mxPoint x="260" y="269.45" as="targetPoint" />
          </mxGeometry>
        </mxCell>
        <mxCell id="hogHbxseBKtBZCMJAR0p-29" value="&amp;lt;&amp;lt;include&amp;gt;&amp;gt;" style="edgeStyle=none;html=1;endArrow=open;verticalAlign=bottom;dashed=1;labelBackgroundColor=none;rounded=0;exitX=0.5;exitY=1;exitDx=0;exitDy=0;entryX=0.5;entryY=0;entryDx=0;entryDy=0;" edge="1" parent="1" source="hogHbxseBKtBZCMJAR0p-27" target="hogHbxseBKtBZCMJAR0p-10">
          <mxGeometry width="160" relative="1" as="geometry">
            <mxPoint x="10" y="510" as="sourcePoint" />
            <mxPoint x="290" y="320" as="targetPoint" />
          </mxGeometry>
        </mxCell>
        <mxCell id="hogHbxseBKtBZCMJAR0p-30" value="" style="edgeStyle=none;html=1;endArrow=block;endFill=0;endSize=12;verticalAlign=bottom;rounded=0;entryX=1;entryY=0.5;entryDx=0;entryDy=0;" edge="1" parent="1" target="hogHbxseBKtBZCMJAR0p-27">
          <mxGeometry width="160" relative="1" as="geometry">
            <mxPoint x="720" y="410" as="sourcePoint" />
            <mxPoint x="546.8399999999999" y="319.47800000000007" as="targetPoint" />
          </mxGeometry>
        </mxCell>
        <mxCell id="hogHbxseBKtBZCMJAR0p-31" value="" style="edgeStyle=none;html=1;endArrow=block;endFill=0;endSize=12;verticalAlign=bottom;rounded=0;entryX=1;entryY=0.5;entryDx=0;entryDy=0;" edge="1" parent="1" target="hogHbxseBKtBZCMJAR0p-32">
          <mxGeometry width="160" relative="1" as="geometry">
            <mxPoint x="720" y="420" as="sourcePoint" />
            <mxPoint x="580" y="410" as="targetPoint" />
          </mxGeometry>
        </mxCell>
        <mxCell id="hogHbxseBKtBZCMJAR0p-32" value="Assign Employees to campaign" style="ellipse;whiteSpace=wrap;html=1;" vertex="1" parent="1">
          <mxGeometry x="430" y="380" width="130" height="35" as="geometry" />
        </mxCell>
        <mxCell id="hogHbxseBKtBZCMJAR0p-33" style="edgeStyle=orthogonalEdgeStyle;rounded=0;orthogonalLoop=1;jettySize=auto;html=1;exitX=0.5;exitY=1;exitDx=0;exitDy=0;" edge="1" parent="1" source="hogHbxseBKtBZCMJAR0p-1" target="hogHbxseBKtBZCMJAR0p-1">
          <mxGeometry relative="1" as="geometry" />
        </mxCell>
        <mxCell id="hogHbxseBKtBZCMJAR0p-34" value="&amp;lt;&amp;lt;precedes&amp;gt;&amp;gt;" style="edgeStyle=none;html=1;endArrow=open;verticalAlign=bottom;dashed=1;labelBackgroundColor=none;rounded=0;entryX=0;entryY=0;entryDx=0;entryDy=0;exitX=0.5;exitY=1;exitDx=0;exitDy=0;" edge="1" parent="1" source="hogHbxseBKtBZCMJAR0p-6" target="hogHbxseBKtBZCMJAR0p-12">
          <mxGeometry width="160" relative="1" as="geometry">
            <mxPoint x="320" y="200" as="sourcePoint" />
            <mxPoint x="510" y="330" as="targetPoint" />
          </mxGeometry>
        </mxCell>
        <mxCell id="hogHbxseBKtBZCMJAR0p-35" value="&amp;lt;&amp;lt;precedes&amp;gt;&amp;gt;" style="edgeStyle=none;html=1;endArrow=open;verticalAlign=bottom;dashed=1;labelBackgroundColor=none;rounded=0;exitX=0.586;exitY=0.048;exitDx=0;exitDy=0;exitPerimeter=0;entryX=0.6;entryY=1;entryDx=0;entryDy=0;entryPerimeter=0;" edge="1" parent="1" source="hogHbxseBKtBZCMJAR0p-32" target="hogHbxseBKtBZCMJAR0p-5">
          <mxGeometry x="0.3595" y="3" width="160" relative="1" as="geometry">
            <mxPoint x="548" y="150" as="sourcePoint" />
            <mxPoint x="720" y="462" as="targetPoint" />
            <mxPoint as="offset" />
          </mxGeometry>
        </mxCell>
        <mxCell id="hogHbxseBKtBZCMJAR0p-36" value="&amp;lt;&amp;lt;extend&amp;gt;&amp;gt;" style="edgeStyle=none;html=1;startArrow=open;endArrow=none;startSize=12;verticalAlign=bottom;dashed=1;labelBackgroundColor=none;rounded=0;exitX=0.802;exitY=0.868;exitDx=0;exitDy=0;exitPerimeter=0;entryX=0.014;entryY=0.267;entryDx=0;entryDy=0;entryPerimeter=0;" edge="1" parent="1" source="hogHbxseBKtBZCMJAR0p-15" target="hogHbxseBKtBZCMJAR0p-8">
          <mxGeometry x="0.4289" y="-3" width="160" relative="1" as="geometry">
            <mxPoint x="360" y="530" as="sourcePoint" />
            <mxPoint x="520" y="530" as="targetPoint" />
            <mxPoint as="offset" />
          </mxGeometry>
        </mxCell>
        <mxCell id="hogHbxseBKtBZCMJAR0p-38" value="&amp;lt;&amp;lt;include&amp;gt;&amp;gt;" style="edgeStyle=none;html=1;endArrow=open;verticalAlign=bottom;dashed=1;labelBackgroundColor=none;rounded=0;exitX=0.399;exitY=1.051;exitDx=0;exitDy=0;exitPerimeter=0;entryX=0.536;entryY=0.067;entryDx=0;entryDy=0;entryPerimeter=0;" edge="1" parent="1" source="hogHbxseBKtBZCMJAR0p-12" target="hogHbxseBKtBZCMJAR0p-8">
          <mxGeometry width="160" relative="1" as="geometry">
            <mxPoint x="360" y="530" as="sourcePoint" />
            <mxPoint x="520" y="530" as="targetPoint" />
          </mxGeometry>
        </mxCell>
      </root>
    </mxGraphModel>
  </diagram>
</mxfile>
